<svg width="18" height="20" viewBox="0 0 18 20" fill="none" xmlns="http://www.w3.org/2000/svg">
<path opacity="0.8" fill-rule="evenodd" clip-rule="evenodd" d="M10.9514 13.9323C9.88229 14.5615 8.63618 14.9224 7.30573 14.9224C3.33237 14.9224 0.111328 11.7035 0.111328 7.73288C0.111328 3.76224 3.33237 0.543396 7.30573 0.543396C11.2791 0.543396 14.5001 3.76224 14.5001 7.73288C14.5001 9.49449 13.8661 11.1081 12.8137 12.3583L17.0847 16.988C17.5409 17.4824 17.5096 18.2527 17.0148 18.7085C16.5201 19.1643 15.7492 19.1329 15.2931 18.6385L10.9514 13.9323ZM12.1035 7.73282C12.1035 10.3804 9.95572 12.5267 7.30627 12.5267C4.65683 12.5267 2.50903 10.3804 2.50903 7.73282C2.50903 5.08524 4.65683 2.93895 7.30627 2.93895C9.95572 2.93895 12.1035 5.08524 12.1035 7.73282Z" fill="#F9F9F9"/>
</svg>
